<?xml version="1.0" encoding="UTF-8"?>
<svg width="1200px" height="400px" viewBox="0 0 1200 400" version="1.1" xmlns="http://www.w3.org/2000/svg" xmlns:xlink="http://www.w3.org/1999/xlink">
    <title>tinyTODO-light</title>
    <g id="tinyTODO-light" stroke="none" fill="none" fill-rule="evenodd" stroke-width="1">
        <g id="Group" transform="translate(0, 85)" fill="#000000">
            <g id="tinyTODO" fill-rule="nonzero">
                <path d="M55.25,177.43 C62.92,177.43 72.54,174.31 77.09,170.15 C83.46,163.91 78.26,154.55 69.55,159.1 C66.56,161.18 60.19,163.78 55.25,163.78 C38.22,163.78 32.11,146.36 30.94,125.56 L56.03,120.36 C63.83,118.41 62.14,106.19 53.3,108.01 L30.68,112.04 C30.94,103.07 31.72,94.1 32.76,85.91 C33.41,77.07 20.28,75.25 19.11,85.91 C17.81,95.01 16.9,104.76 16.9,114.64 L7.41,116.33 C-3.25,118.41 0.26,132.19 10.27,129.72 L17.42,128.29 C19.76,154.68 29.64,177.43 55.25,177.43 Z" id="Path"></path>
                <path d="M84.25,113.86 L85.55,171.06 C85.55,179.77 99.2,179.77 99.2,171.06 L97.9,113.86 C97.9,105.15 84.25,105.15 84.25,113.86 Z M82.17,86.3 C82.17,91.11 86.07,94.88 91.01,94.88 C95.82,94.88 99.72,91.11 99.72,86.3 C99.72,81.62 95.82,77.85 91.01,77.85 C86.07,77.85 82.17,81.62 82.17,86.3 Z" id="Shape"></path>
                <path d="M135.87,178.34 C145.88,177.82 154.85,169.37 154.85,147.79 C154.85,137.13 152.25,127.38 147.57,119.71 C152.9,115.94 158.88,114.64 164.47,116.07 C181.89,120.62 181.24,145.19 174.22,168.59 C171.23,176.91 183.58,181.33 186.57,173.01 C195.02,149.35 196.71,112.82 170.97,104.76 C159.14,100.99 148.09,103.72 138.99,110.35 C131.71,105.02 122.09,103.33 110.91,107.75 C101.94,110.87 105.32,122.7 114.03,119.32 C120.53,116.46 125.86,116.72 130.15,119.06 C123,128.16 118.58,140.38 118.06,153.38 C117.28,171.71 127.16,178.73 135.87,178.34 Z M131.97,151.3 C132.75,142.98 135.09,135.83 138.34,130.24 C139.9,134.79 140.81,140.25 140.81,146.36 C140.94,158.32 139.12,165.21 135.61,165.47 C132.62,165.6 131.32,159.62 131.97,151.3 Z" id="Shape"></path>
                <path d="M251.71,199.66 C250.02,193.81 248.59,184.06 247.68,173.4 C262.63,167.03 270.56,149.48 271.99,137 C273.16,126.47 272.25,107.49 256.52,106.71 C235.59,105.54 232.08,134.92 233.64,162.22 C214.92,160.4 213.88,133.49 213.1,113.08 C213.1,104.24 199.45,104.24 199.45,113.08 C199.06,138.69 204.78,174.7 234.16,175.87 L234.81,175.87 C236.11,187.31 238.06,197.32 239.36,202.78 C241.44,211.36 253.79,208.24 251.71,199.66 Z M246.9,158.58 C246.38,138.95 248.2,120.62 254.18,120.23 C260.68,119.97 259.9,131.28 259.12,135.96 C257.95,143.76 253.92,153.38 246.9,158.58 Z" id="Shape"></path>
                <path d="M303.87,176 L327.87,176 C330.87,176 332.87,174 332.87,171 L332.87,67.8 C332.87,64.8 334.87,62.8 337.87,62.8 L366.07,62.8 C369.07,62.8 371.07,60.8 371.07,57.8 L371.07,39.6 C371.07,36.6 369.07,34.6 366.07,34.6 L265.67,34.6 C262.67,34.6 260.67,36.6 260.67,39.6 L260.67,57.8 C260.67,60.8 262.67,62.8 265.67,62.8 L293.87,62.8 C296.87,62.8 298.87,64.8 298.87,67.8 L298.87,171 C298.87,174 300.87,176 303.87,176 Z" id="Path"></path>
                <path d="M428.47,178.6 C467.07,178.6 493.27,151 493.27,104.6 C493.27,58.4 467.07,32 428.47,32 C390.07,32 363.67,58.2 363.67,104.6 C363.67,151 390.07,178.6 428.47,178.6 Z M428.47,149.4 C409.87,149.4 398.47,132.2 398.47,104.6 C398.47,77.2 409.87,61 428.47,61 C447.07,61 458.67,77.2 458.67,104.6 C458.67,132.2 447.07,149.4 428.47,149.4 Z" id="Shape"></path>
                <path d="M502.07,176 L539.67,176 C580.87,176 609.27,153.8 609.27,104.6 C609.27,55.4 580.87,34.6 537.67,34.6 L502.07,34.6 C499.07,34.6 497.07,36.6 497.07,39.6 L497.07,171 C497.07,174 499.07,176 502.07,176 Z M531.07,146.2 L531.07,63.8 C531.07,62.6 532.07,61.6 533.47,61.6 L535.67,61.6 C558.47,61.6 574.47,71 574.47,104.6 C574.47,138.2 558.47,148.6 535.67,148.6 L533.47,148.6 C532.07,148.6 531.07,147.6 531.07,146.2 Z" id="Shape"></path>
                <path d="M676.47,178.6 C715.07,178.6 741.27,151 741.27,104.6 C741.27,58.4 715.07,32 676.47,32 C638.07,32 611.67,58.2 611.67,104.6 C611.67,151 638.07,178.6 676.47,178.6 Z M676.47,149.4 C657.87,149.4 646.47,132.2 646.47,104.6 C646.47,77.2 657.87,61 676.47,61 C695.07,61 706.67,77.2 706.67,104.6 C706.67,132.2 695.07,149.4 676.47,149.4 Z" id="Shape"></path>
            </g>
            <g id="Just-enough-to-do." transform="translate(0, 206)" fill-rule="nonzero">
                <path d="M0.8203125,24.2099609 L3.29589844,24.2099609 C3.33496094,25.1083984 3.67919922,25.8212891 4.32861328,26.3486328 C4.97802734,26.8759766 5.76171875,27.1396484 6.6796875,27.1396484 C7.83203125,27.1396484 8.74511719,26.8100586 9.41894531,26.1508789 C10.0927734,25.4916992 10.4296875,24.4589844 10.4296875,23.0527344 L10.4296875,7.23242188 L12.9638672,7.23242188 L12.9638672,22.7744141 C12.9638672,24.9716797 12.3925781,26.6342773 11.25,27.762207 C10.1074219,28.8901367 8.58398438,29.4541016 6.6796875,29.4541016 C4.93164062,29.4541016 3.51806641,28.9707031 2.43896484,28.0039062 C1.35986328,27.0371094 0.8203125,25.7724609 0.8203125,24.2099609 Z" id="Path"></path>
                <path d="M32.1679688,12.2568359 L32.1679688,29 L29.6777344,29 L29.6777344,26.2314453 L29.5166016,26.2314453 C29.2333984,27.0419922 28.6694336,27.7524414 27.824707,28.362793 C26.9799805,28.9731445 25.8886719,29.2783203 24.5507812,29.2783203 C22.7636719,29.2783203 21.3549805,28.8510742 20.324707,27.996582 C19.2944336,27.1420898 18.7792969,25.8017578 18.7792969,23.9755859 L18.7792969,12.2568359 L21.3134766,12.2568359 L21.3134766,23.3310547 C21.3134766,25.8505859 22.5830078,27.1103516 25.1220703,27.1103516 C26.4111328,27.1103516 27.4926758,26.7026367 28.3666992,25.887207 C29.2407227,25.0717773 29.6777344,24.1074219 29.6777344,22.9941406 L29.6777344,12.2568359 L32.1679688,12.2568359 Z" id="Path"></path>
                <path d="M37.2070312,17.0175781 C37.2070312,15.3671875 37.7905273,14.1171875 38.9575195,13.2675781 C40.1245117,12.4179688 41.5722656,11.9931641 43.3007812,11.9931641 C44.1699219,11.9931641 44.9707031,12.1103516 45.703125,12.3447266 C46.4355469,12.5791016 47.0556641,12.8989258 47.5634766,13.3041992 C48.0712891,13.7094727 48.4619141,14.1953125 48.7353516,14.7617188 C49.0087891,15.328125 49.1455078,15.9482422 49.1455078,16.6220703 L46.8017578,16.6220703 C46.7626953,16.1923828 46.6162109,15.7895508 46.3623047,15.4135742 C46.1083984,15.0375977 45.703125,14.7177734 45.1464844,14.4541016 C44.5898438,14.1904297 43.9355469,14.0585938 43.1835938,14.0585938 C42.4902344,14.0585938 41.8798828,14.1611328 41.3525391,14.3662109 C40.8251953,14.5712891 40.4077148,14.8813477 40.1000977,15.2963867 C39.7924805,15.7114258 39.6386719,16.1923828 39.6386719,16.7392578 C39.6386719,17.1298828 39.7192383,17.4667969 39.8803711,17.75 C40.0415039,18.0332031 40.2246094,18.2553711 40.4296875,18.4165039 C40.6347656,18.5776367 40.9350586,18.7314453 41.3305664,18.8779297 C41.7260742,19.0244141 42.0507812,19.1220703 42.3046875,19.1708984 C42.5585938,19.2197266 42.9296875,19.2929688 43.4179688,19.390625 C43.4570312,19.390625 43.4936523,19.3955078 43.527832,19.4052734 C43.5620117,19.4150391 43.5986328,19.4199219 43.6376953,19.4199219 C43.6767578,19.4199219 43.7158203,19.4345703 43.7548828,19.4638672 C44.3408203,19.5615234 44.8486328,19.6616211 45.2783203,19.7641602 C45.7080078,19.8666992 46.1621094,19.9985352 46.640625,20.159668 C47.1191406,20.3208008 47.5195312,20.5136719 47.8417969,20.7382812 C48.1640625,20.9628906 48.4692383,21.2314453 48.7573242,21.5439453 C49.0454102,21.8564453 49.2553711,22.2275391 49.387207,22.6572266 C49.519043,23.0869141 49.5849609,23.5654297 49.5849609,24.0927734 C49.5849609,25.7138672 48.984375,26.9833984 47.7832031,27.9013672 C46.5820312,28.8193359 44.9951172,29.2783203 43.0224609,29.2783203 C41.1962891,29.2783203 39.7192383,28.8754883 38.5913086,28.0698242 C37.4633789,27.2641602 36.8994141,26.1289062 36.8994141,24.6640625 L39.3603516,24.6640625 C39.6044922,26.3339844 40.8642578,27.1689453 43.1396484,27.1689453 C44.0380859,27.1689453 44.7924805,27.0419922 45.402832,26.7880859 C46.0131836,26.5341797 46.4501953,26.2094727 46.7138672,25.8139648 C46.9775391,25.418457 47.109375,24.9472656 47.109375,24.4003906 C47.109375,24.0292969 47.0336914,23.7021484 46.8823242,23.4189453 C46.730957,23.1357422 46.5478516,22.9086914 46.3330078,22.737793 C46.1181641,22.5668945 45.7983398,22.4033203 45.3735352,22.2470703 C44.9487305,22.0908203 44.5776367,21.9785156 44.2602539,21.9101562 C43.9428711,21.8417969 43.4912109,21.7441406 42.9052734,21.6171875 C42.1337891,21.4609375 41.5234375,21.3266602 41.0742188,21.2143555 C40.625,21.1020508 40.1171875,20.9238281 39.5507812,20.6796875 C38.984375,20.4355469 38.5522461,20.1645508 38.2543945,19.8666992 C37.956543,19.5688477 37.7075195,19.1831055 37.5073242,18.7094727 C37.3071289,18.2358398 37.2070312,17.671875 37.2070312,17.0175781 Z" id="Path"></path>
                <path d="M55.2832031,12.2568359 L55.2832031,8.05273438 L57.7880859,8.05273438 L57.7880859,12.2568359 L61.5966797,12.2568359 L61.5966797,14.3955078 L57.7880859,14.3955078 L57.7880859,24.4589844 C57.7880859,25.1523438 57.8735352,25.6821289 58.0444336,26.0483398 C58.215332,26.4145508 58.4936523,26.668457 58.8793945,26.8100586 C59.2651367,26.9516602 59.8242188,27.0224609 60.5566406,27.0224609 C61.0058594,27.0224609 61.4355469,27.0029297 61.8457031,26.9638672 L61.8457031,29.0292969 C61.4550781,29.1074219 60.8105469,29.1464844 59.9121094,29.1464844 C58.9453125,29.1464844 58.1567383,29.0561523 57.5463867,28.8754883 C56.9360352,28.6948242 56.4672852,28.3920898 56.1401367,27.9672852 C55.8129883,27.5424805 55.5883789,27.0493164 55.4663086,26.487793 C55.3442383,25.9262695 55.2832031,25.2109375 55.2832031,24.3417969 L55.2832031,14.3955078 L52.7197266,14.3955078 L52.7197266,12.2568359 L55.2832031,12.2568359 Z" id="Path"></path>
                <path d="M80.0390625,29.2783203 C77.8515625,29.2783203 76.1376953,28.621582 74.8974609,27.3081055 C73.6572266,25.9946289 73.0371094,24.2197266 73.0371094,21.9833984 L73.0371094,19.2734375 C73.0371094,17.0761719 73.671875,15.3134766 74.9414062,13.9853516 C76.2109375,12.6572266 77.8466797,11.9931641 79.8486328,11.9931641 C81.8505859,11.9931641 83.4863281,12.6572266 84.7558594,13.9853516 C86.0253906,15.3134766 86.6601562,17.0761719 86.6601562,19.2734375 L86.6601562,21.3242188 L75.5566406,21.3242188 L75.5566406,22.1738281 C75.5566406,23.5898438 75.949707,24.7568359 76.7358398,25.6748047 C77.5219727,26.5927734 78.6230469,27.0517578 80.0390625,27.0517578 C81.015625,27.0517578 81.8334961,26.8540039 82.4926758,26.4584961 C83.1518555,26.0629883 83.5742188,25.5869141 83.7597656,25.0302734 L86.4111328,25.0302734 C86.3330078,25.4990234 86.1474609,25.9677734 85.8544922,26.4365234 C85.5615234,26.9052734 85.1660156,27.359375 84.6679688,27.7988281 C84.1699219,28.2382812 83.5180664,28.5947266 82.7124023,28.8681641 C81.9067383,29.1416016 81.015625,29.2783203 80.0390625,29.2783203 Z M75.5566406,19.390625 L84.1259766,19.390625 L84.1259766,19.0976562 C84.1259766,18.1210938 83.9477539,17.2617188 83.5913086,16.5195312 C83.2348633,15.7773438 82.7319336,15.2084961 82.0825195,14.8129883 C81.4331055,14.4174805 80.6835938,14.2197266 79.8339844,14.2197266 C78.5546875,14.2197266 77.5219727,14.6616211 76.7358398,15.5454102 C75.949707,16.4291992 75.5566406,17.6132812 75.5566406,19.0976562 L75.5566406,19.390625 Z" id="Shape"></path>
                <path d="M91.5673828,29 L91.5673828,12.2568359 L94.0576172,12.2568359 L94.0576172,15.3476562 L94.21875,15.3476562 C94.9316406,13.1113281 96.6259766,11.9931641 99.3017578,11.9931641 C101.049805,11.9931641 102.438965,12.4643555 103.469238,13.4067383 C104.499512,14.3491211 105.014648,15.7138672 105.014648,17.5009766 L105.014648,29 L102.509766,29 L102.509766,18.2919922 C102.509766,16.9541016 102.180176,15.9335938 101.520996,15.2304688 C100.861816,14.5273438 99.9316406,14.1757812 98.7304688,14.1757812 C97.2070312,14.1757812 96.0473633,14.6860352 95.2514648,15.706543 C94.4555664,16.7270508 94.0576172,18.0283203 94.0576172,19.6103516 L94.0576172,29 L91.5673828,29 Z" id="Path"></path>
                <path d="M117.055664,11.9931641 C119.145508,11.9931641 120.849609,12.6425781 122.167969,13.9414062 C123.486328,15.2402344 124.145508,17.0273438 124.145508,19.3027344 L124.145508,21.9541016 C124.145508,24.2294922 123.481445,26.019043 122.15332,27.3227539 C120.825195,28.6264648 119.125977,29.2783203 117.055664,29.2783203 C114.936523,29.2783203 113.222656,28.6313477 111.914062,27.3374023 C110.605469,26.043457 109.951172,24.2490234 109.951172,21.9541016 L109.951172,19.3027344 C109.951172,17.1054688 110.620117,15.3378906 111.958008,14 C113.295898,12.6621094 114.995117,11.9931641 117.055664,11.9931641 Z M112.441406,19.5810547 L112.441406,21.6757812 C112.441406,22.7792969 112.624512,23.7314453 112.990723,24.5322266 C113.356934,25.3330078 113.886719,25.953125 114.580078,26.3925781 C115.273438,26.8320312 116.098633,27.0517578 117.055664,27.0517578 C118.491211,27.0517578 119.611816,26.5683594 120.41748,25.6015625 C121.223145,24.6347656 121.625977,23.3261719 121.625977,21.6757812 L121.625977,19.5810547 C121.625977,17.9501953 121.213379,16.6489258 120.388184,15.6772461 C119.562988,14.7055664 118.45459,14.2197266 117.062988,14.2197266 C115.671387,14.2197266 114.553223,14.7104492 113.708496,15.6918945 C112.86377,16.6733398 112.441406,17.9697266 112.441406,19.5810547 Z" id="Shape"></path>
                <path d="M142.441406,12.2568359 L142.441406,29 L139.951172,29 L139.951172,26.2314453 L139.790039,26.2314453 C139.506836,27.0419922 138.942871,27.7524414 138.098145,28.362793 C137.253418,28.9731445 136.162109,29.2783203 134.824219,29.2783203 C133.037109,29.2783203 131.628418,28.8510742 130.598145,27.996582 C129.567871,27.1420898 129.052734,25.8017578 129.052734,23.9755859 L129.052734,12.2568359 L131.586914,12.2568359 L131.586914,23.3310547 C131.586914,25.8505859 132.856445,27.1103516 135.395508,27.1103516 C136.68457,27.1103516 137.766113,26.7026367 138.640137,25.887207 C139.51416,25.0717773 139.951172,24.1074219 139.951172,22.9941406 L139.951172,12.2568359 L142.441406,12.2568359 Z" id="Path"></path>
                <path d="M154.145508,33.0576172 C155.678711,33.0576172 156.835938,32.671875 157.617188,31.9003906 C158.398438,31.1289062 158.789062,30.0400391 158.789062,28.6337891 L158.789062,26.0703125 L158.62793,26.0703125 C158.40332,26.5585938 158.07373,27.0004883 157.63916,27.3959961 C157.20459,27.7915039 156.662598,28.1064453 156.013184,28.3408203 C155.36377,28.5751953 154.663086,28.6923828 153.911133,28.6923828 C152.670898,28.6923828 151.547852,28.4189453 150.541992,27.8720703 C149.536133,27.3251953 148.73291,26.5219727 148.132324,25.4624023 C147.531738,24.402832 147.231445,23.1748047 147.231445,21.7783203 L147.231445,18.9365234 C147.231445,17.9013672 147.404785,16.9418945 147.751465,16.0581055 C148.098145,15.1743164 148.571777,14.4370117 149.172363,13.8461914 C149.772949,13.2553711 150.478516,12.7988281 151.289062,12.4765625 C152.099609,12.1542969 152.973633,11.9931641 153.911133,11.9931641 C155.083008,11.9931641 156.113281,12.2714844 157.001953,12.828125 C157.890625,13.3847656 158.486328,14.0292969 158.789062,14.7617188 L158.90625,14.7617188 L158.90625,12.2568359 L161.279297,12.2568359 L161.279297,28.6044922 C161.279297,30.8212891 160.639648,32.4887695 159.360352,33.6069336 C158.081055,34.7250977 156.303711,35.2841797 154.02832,35.2841797 C152.036133,35.2841797 150.50293,34.8618164 149.428711,34.0170898 C148.354492,33.1723633 147.744141,32.1005859 147.597656,30.8017578 L150.219727,30.8017578 C150.336914,31.4267578 150.742188,31.9589844 151.435547,32.3984375 C152.128906,32.8378906 153.032227,33.0576172 154.145508,33.0576172 Z M154.394531,14.2197266 C153.681641,14.2197266 153.032227,14.3466797 152.446289,14.6005859 C151.860352,14.8544922 151.367188,15.2133789 150.966797,15.6772461 C150.566406,16.1411133 150.26123,16.7050781 150.05127,17.3691406 C149.841309,18.0332031 149.736328,18.7607422 149.736328,19.5517578 L149.736328,21.1923828 C149.736328,22.7548828 150.17334,24.0244141 151.047363,25.0009766 C151.921387,25.9775391 153.046875,26.4658203 154.423828,26.4658203 C155.771484,26.4658203 156.831055,25.9995117 157.602539,25.0668945 C158.374023,24.1342773 158.759766,23.0283203 158.759766,21.7490234 L158.759766,19.0537109 C158.759766,17.7353516 158.361816,16.6000977 157.565918,15.6479492 C156.77002,14.6958008 155.712891,14.2197266 154.394531,14.2197266 Z" id="Shape"></path>
                <path d="M166.860352,29 L166.860352,6.07519531 L169.365234,6.07519531 L169.365234,15.3476562 L169.482422,15.3476562 C169.560547,15.0839844 169.67041,14.8178711 169.812012,14.5493164 C169.953613,14.2807617 170.168457,13.9902344 170.456543,13.6777344 C170.744629,13.3652344 171.071777,13.0869141 171.437988,12.8427734 C171.804199,12.5986328 172.275391,12.3959961 172.851562,12.2348633 C173.427734,12.0737305 174.052734,11.9931641 174.726562,11.9931641 C176.416016,11.9931641 177.77832,12.4692383 178.813477,13.4213867 C179.848633,14.3735352 180.366211,15.7431641 180.366211,17.5302734 L180.366211,29 L177.832031,29 L177.832031,18.3359375 C177.832031,17.0078125 177.492676,15.9824219 176.813965,15.2597656 C176.135254,14.5371094 175.185547,14.1757812 173.964844,14.1757812 C172.5,14.1757812 171.367188,14.6860352 170.566406,15.706543 C169.765625,16.7270508 169.365234,18.0283203 169.365234,19.6103516 L169.365234,29 L166.860352,29 Z" id="Path"></path>
                <path d="M194.399414,12.2568359 L194.399414,8.05273438 L196.904297,8.05273438 L196.904297,12.2568359 L200.712891,12.2568359 L200.712891,14.3955078 L196.904297,14.3955078 L196.904297,24.4589844 C196.904297,25.1523438 196.989746,25.6821289 197.160645,26.0483398 C197.331543,26.4145508 197.609863,26.668457 197.995605,26.8100586 C198.381348,26.9516602 198.94043,27.0224609 199.672852,27.0224609 C200.12207,27.0224609 200.551758,27.0029297 200.961914,26.9638672 L200.961914,29.0292969 C200.571289,29.1074219 199.926758,29.1464844 199.02832,29.1464844 C198.061523,29.1464844 197.272949,29.0561523 196.662598,28.8754883 C196.052246,28.6948242 195.583496,28.3920898 195.256348,27.9672852 C194.929199,27.5424805 194.70459,27.0493164 194.58252,26.487793 C194.460449,25.9262695 194.399414,25.2109375 194.399414,24.3417969 L194.399414,14.3955078 L191.835938,14.3955078 L191.835938,12.2568359 L194.399414,12.2568359 Z" id="Path"></path>
                <path d="M211.845703,11.9931641 C213.935547,11.9931641 215.639648,12.6425781 216.958008,13.9414062 C218.276367,15.2402344 218.935547,17.0273438 218.935547,19.3027344 L218.935547,21.9541016 C218.935547,24.2294922 218.271484,26.019043 216.943359,27.3227539 C215.615234,28.6264648 213.916016,29.2783203 211.845703,29.2783203 C209.726562,29.2783203 208.012695,28.6313477 206.704102,27.3374023 C205.395508,26.043457 204.741211,24.2490234 204.741211,21.9541016 L204.741211,19.3027344 C204.741211,17.1054688 205.410156,15.3378906 206.748047,14 C208.085938,12.6621094 209.785156,11.9931641 211.845703,11.9931641 Z M207.231445,19.5810547 L207.231445,21.6757812 C207.231445,22.7792969 207.414551,23.7314453 207.780762,24.5322266 C208.146973,25.3330078 208.676758,25.953125 209.370117,26.3925781 C210.063477,26.8320312 210.888672,27.0517578 211.845703,27.0517578 C213.28125,27.0517578 214.401855,26.5683594 215.20752,25.6015625 C216.013184,24.6347656 216.416016,23.3261719 216.416016,21.6757812 L216.416016,19.5810547 C216.416016,17.9501953 216.003418,16.6489258 215.178223,15.6772461 C214.353027,14.7055664 213.244629,14.2197266 211.853027,14.2197266 C210.461426,14.2197266 209.343262,14.7104492 208.498535,15.6918945 C207.653809,16.6733398 207.231445,17.9697266 207.231445,19.5810547 Z" id="Shape"></path>
                <path d="M237.114258,11.9931641 C238.413086,11.9931641 239.475098,12.2568359 240.300293,12.7841797 C241.125488,13.3115234 241.689453,13.9511719 241.992188,14.703125 L242.109375,14.703125 L242.109375,6.07519531 L244.614258,6.07519531 L244.614258,29 L242.241211,29 L242.241211,26.3486328 L242.109375,26.3486328 C241.894531,27.1005859 241.337891,27.7719727 240.439453,28.362793 C239.541016,28.9536133 238.40332,29.2490234 237.026367,29.2490234 C235.092773,29.2490234 233.532715,28.6240234 232.346191,27.3740234 C231.159668,26.1240234 230.566406,24.4492188 230.566406,22.3496094 L230.566406,18.8779297 C230.566406,16.8271484 231.159668,15.1669922 232.346191,13.8974609 C233.532715,12.6279297 235.12207,11.9931641 237.114258,11.9931641 Z M237.451172,14.2197266 C236.09375,14.2197266 235.021973,14.6860352 234.23584,15.6186523 C233.449707,16.5512695 233.056641,17.8525391 233.056641,19.5224609 L233.056641,21.7197266 C233.056641,23.3994141 233.459473,24.7080078 234.265137,25.6455078 C235.070801,26.5830078 236.164551,27.0517578 237.546387,27.0517578 C238.928223,27.0517578 240.03418,26.6000977 240.864258,25.6967773 C241.694336,24.793457 242.109375,23.5654297 242.109375,22.0126953 L242.109375,18.8779297 C242.109375,17.5400391 241.672363,16.4291992 240.79834,15.5454102 C239.924316,14.6616211 238.808594,14.2197266 237.451172,14.2197266 Z" id="Shape"></path>
                <path d="M256.787109,11.9931641 C258.876953,11.9931641 260.581055,12.6425781 261.899414,13.9414062 C263.217773,15.2402344 263.876953,17.0273438 263.876953,19.3027344 L263.876953,21.9541016 C263.876953,24.2294922 263.212891,26.019043 261.884766,27.3227539 C260.556641,28.6264648 258.857422,29.2783203 256.787109,29.2783203 C254.667969,29.2783203 252.954102,28.6313477 251.645508,27.3374023 C250.336914,26.043457 249.682617,24.2490234 249.682617,21.9541016 L249.682617,19.3027344 C249.682617,17.1054688 250.351562,15.3378906 251.689453,14 C253.027344,12.6621094 254.726562,11.9931641 256.787109,11.9931641 Z M252.172852,19.5810547 L252.172852,21.6757812 C252.172852,22.7792969 252.355957,23.7314453 252.722168,24.5322266 C253.088379,25.3330078 253.618164,25.953125 254.311523,26.3925781 C255.004883,26.8320312 255.830078,27.0517578 256.787109,27.0517578 C258.222656,27.0517578 259.343262,26.5683594 260.148926,25.6015625 C260.95459,24.6347656 261.357422,23.3261719 261.357422,21.6757812 L261.357422,19.5810547 C261.357422,17.9501953 260.944824,16.6489258 260.119629,15.6772461 C259.294434,14.7055664 258.186035,14.2197266 256.794434,14.2197266 C255.402832,14.2197266 254.284668,14.7104492 253.439941,15.6918945 C252.595215,16.6733398 252.172852,17.9697266 252.172852,19.5810547 Z" id="Shape"></path>
                <path d="M268.549805,27.1396484 C268.549805,26.5341797 268.757324,26.0214844 269.172363,25.6015625 C269.587402,25.1816406 270.092773,24.9716797 270.688477,24.9716797 C271.313477,24.9716797 271.833496,25.1767578 272.248535,25.5869141 C272.663574,25.9970703 272.871094,26.5146484 272.871094,27.1396484 C272.871094,27.7451172 272.663574,28.2529297 272.248535,28.6630859 C271.833496,29.0732422 271.313477,29.2783203 270.688477,29.2783203 C270.092773,29.2783203 269.587402,29.0732422 269.172363,28.6630859 C268.757324,28.2529297 268.549805,27.7451172 268.549805,27.1396484 Z" id="Path"></path>
            </g>
        </g>
    </g>
</svg>